<?xml version="1.0" encoding="utf-8"?>
<!-- Generator: Adobe Illustrator 27.7.0, SVG Export Plug-In . SVG Version: 6.00 Build 0)  -->
<svg version="1.1" id="Layer_1" xmlns="http://www.w3.org/2000/svg" xmlns:xlink="http://www.w3.org/1999/xlink" x="0px" y="0px"
	 viewBox="0 0 708.7 708.7" style="enable-background:new 0 0 708.7 708.7;" xml:space="preserve">
<style type="text/css">
	.st0{fill:#231815;}
	.st1{fill:#FFFFFF;}
	.st2{fill:#E3582B;}
	.st3{fill:#1FA095;}
</style>
<path class="st0" d="M708.7,623.6c0,47-38.1,85-85,85H85c-47,0-85-38.1-85-85V85c0-47,38.1-85,85-85h538.6c47,0,85,38.1,85,85V623.6
	z"/>
<g>
	<polygon class="st1" points="541.3,459.9 613.6,202.3 512.1,228.2 	"/>
	<polygon class="st1" points="282,526.1 449.1,483.4 95,334.6 253.3,496.6 	"/>
	<polygon class="st2" points="484.1,235.3 95,334.6 282.9,387.3 484.1,235.4 	"/>
	<polygon class="st3" points="484.1,235.4 317.7,397.1 541.3,459.9 	"/>
	<polygon class="st1" points="484.3,235.2 484.1,235.4 484.1,235.4 	"/>
</g>
</svg>
